<svg width="144" height="65" viewBox="0 0 144 65" fill="none" xmlns="http://www.w3.org/2000/svg">
<g clip-path="url(#clip0_202_2416)">
<path fill-rule="evenodd" clip-rule="evenodd" d="M144 42.8001H139.1C137.12 42.8001 136.04 41.6401 136.04 39.6801V30.7001H141.67V28.3901H136.04V20.9101H134.72C133.98 20.9101 133.73 21.1601 133.73 21.9001V39.6801C133.73 41.1901 134.24 42.4701 135.3 43.5401C136.36 44.5901 137.61 45.1101 139.1 45.1101H140.99C141.84 45.1101 142.55 44.8001 143.17 44.2201C143.59 43.8001 143.87 43.3401 144 42.8001ZM112.17 45.1101V35.3501C112.17 33.3101 112.91 31.5601 114.34 30.1101C115.78 28.6401 117.56 27.9101 119.62 27.9101C121.66 27.9101 123.42 28.6701 124.87 30.1101C126.31 31.5501 127.07 33.3101 127.07 35.3601V45.1201H128.39C129.13 45.1201 129.38 44.8801 129.38 44.1301V35.3601C129.38 32.6601 128.41 30.3901 126.5 28.4801C124.59 26.5701 122.32 25.6001 119.62 25.6001C116.91 25.6001 114.62 26.5501 112.71 28.4701C110.81 30.3801 109.86 32.6601 109.86 35.3501V44.1201C109.86 44.8601 110.1 45.1101 110.85 45.1101H112.17V45.1101ZM103.19 35.3501C103.19 37.4101 102.45 39.1801 100.99 40.6301C99.54 42.0601 97.78 42.8001 95.75 42.8001C93.7 42.8001 91.93 42.0801 90.48 40.6301C89.03 39.1801 88.31 37.4001 88.31 35.3601C88.31 33.3201 89.05 31.5701 90.48 30.1201C91.92 28.6501 93.7 27.9201 95.76 27.9201C97.8 27.9201 99.56 28.6801 101.01 30.1201C102.44 31.5501 103.19 33.3101 103.19 35.3501ZM103.19 45.1101H104.51C105.25 45.1101 105.5 44.8701 105.5 44.1201V35.3501C105.5 32.6501 104.53 30.3801 102.62 28.4701C100.71 26.5601 98.44 25.5901 95.74 25.5901C93.03 25.5901 90.74 26.5401 88.83 28.4601C86.93 30.3701 85.98 32.6501 85.98 35.3401C85.98 38.0401 86.92 40.3401 88.83 42.2501C90.74 44.1601 93.04 45.1001 95.74 45.1001C98.05 45.1001 100.09 44.3501 101.92 42.9301L103.19 41.9401V45.1101V45.1101ZM79.33 35.3501C79.33 37.4101 78.59 39.1801 77.12 40.6301C75.67 42.0601 73.91 42.8001 71.88 42.8001C69.83 42.8001 68.06 42.0801 66.61 40.6301C65.16 39.1801 64.44 37.4001 64.44 35.3601C64.44 33.3201 65.18 31.5701 66.61 30.1201C68.05 28.6501 69.83 27.9201 71.89 27.9201C73.93 27.9201 75.69 28.6801 77.14 30.1201C78.57 31.5501 79.33 33.3101 79.33 35.3501ZM79.33 19.8901V28.7401L78.06 27.7501C76.24 26.3301 74.19 25.5801 71.88 25.5801C69.17 25.5801 66.88 26.5301 64.97 28.4501C63.07 30.3601 62.12 32.6401 62.12 35.3301C62.12 38.0301 63.06 40.3301 64.97 42.2401C66.88 44.1501 69.17 45.0901 71.88 45.0901C74.5 45.0901 76.74 44.1801 78.64 42.3701C80.53 40.5601 81.64 38.3701 81.64 35.7201V20.8801C81.64 20.1401 81.4 19.8901 80.65 19.8901H79.33ZM55.46 35.3501C55.46 37.4101 54.72 39.1801 53.26 40.6301C51.81 42.0601 50.05 42.8001 48.02 42.8001C45.97 42.8001 44.2 42.0801 42.75 40.6301C41.3 39.1801 40.58 37.4001 40.58 35.3601C40.58 33.3201 41.32 31.5701 42.75 30.1201C44.19 28.6501 45.97 27.9201 48.03 27.9201C50.07 27.9201 51.83 28.6801 53.28 30.1201C54.7 31.5501 55.46 33.3101 55.46 35.3501ZM55.46 19.8901V28.7401L54.19 27.7501C52.37 26.3301 50.32 25.5801 48.01 25.5801C45.3 25.5801 43.01 26.5301 41.1 28.4501C39.2 30.3601 38.25 32.6401 38.25 35.3301C38.25 38.0301 39.19 40.3301 41.1 42.2401C43.01 44.1501 45.3 45.0901 48.01 45.0901C50.63 45.0901 52.87 44.1801 54.77 42.3701C56.66 40.5601 57.77 38.3701 57.77 35.7201V20.8801C57.77 20.1401 57.52 19.8901 56.78 19.8901H55.46Z" fill="white"/>
<path d="M0.0101672 30.1799C0.0101672 30.1999 0.000167247 30.2299 0.000167247 30.2499C-0.00983275 30.7199 0.430167 31.0899 0.900167 30.9899L6.13017 29.87C6.51017 29.79 6.82017 29.5099 6.94017 29.1399C6.95017 29.0999 6.96017 29.06 6.98017 29.03C6.99017 29 7.00017 28.9699 7.01017 28.9299C7.02017 28.8899 7.04017 28.8499 7.05017 28.8099C7.06017 28.7899 7.07017 28.7599 7.08017 28.7299C7.09017 28.6899 7.11017 28.65 7.13017 28.61C7.14017 28.59 7.15017 28.56 7.16017 28.54C7.18017 28.49 7.20017 28.4299 7.22017 28.3799C7.24017 28.3299 7.26017 28.2699 7.29017 28.2199C7.31017 28.1699 7.34017 28.1099 7.36017 28.0599C7.37017 28.0299 7.38017 28.0099 7.40017 27.9799C7.42017 27.9299 7.45017 27.8799 7.47017 27.8299C7.49017 27.7799 7.52017 27.7299 7.54017 27.6799C7.54017 27.6699 7.55017 27.6599 7.55017 27.6499C7.57017 27.6099 7.59017 27.57 7.61017 27.53C7.62017 27.52 7.62017 27.5099 7.63017 27.4899C7.64017 27.4699 7.66017 27.4399 7.67017 27.4199C7.69017 27.3799 7.72017 27.33 7.74017 27.29C7.77017 27.24 7.79017 27.1999 7.82017 27.1499C7.82017 27.1399 7.83017 27.1399 7.83017 27.1299C7.85017 27.0999 7.88017 27.0499 7.91017 26.9999C7.94017 26.9499 7.97017 26.8999 8.00017 26.8499C8.01017 26.8299 8.03017 26.81 8.04017 26.79C8.06017 26.76 8.08017 26.7199 8.10017 26.6899C8.11017 26.6699 8.13017 26.6499 8.14017 26.6299C8.20017 26.5399 8.26017 26.45 8.32017 26.37C8.33017 26.35 8.35017 26.3299 8.37017 26.3099C8.40017 26.2699 8.43017 26.2199 8.47017 26.1799C8.50017 26.1399 8.54017 26.0899 8.57017 26.0499C8.57017 26.0399 8.58017 26.04 8.59017 26.03C8.63017 25.98 8.66017 25.9399 8.70017 25.8899C8.74017 25.8399 8.79017 25.7799 8.83017 25.7299C8.84017 25.7199 8.85017 25.7099 8.86017 25.6899C8.89017 25.6499 8.92017 25.6099 8.96017 25.5799C8.96017 25.5799 8.96017 25.5799 8.97017 25.5699C9.01017 25.5199 9.05017 25.4799 9.09017 25.4399C9.10017 25.4299 9.10017 25.4299 9.11017 25.4199C9.15017 25.3799 9.19017 25.3399 9.23017 25.2999C9.24017 25.2899 9.25017 25.28 9.25017 25.28C9.33017 25.19 9.42017 25.11 9.50017 25.03L9.51017 25.0199C9.55017 24.9799 9.60017 24.9399 9.64017 24.8999C9.65017 24.8899 9.65017 24.8899 9.66017 24.8799C9.70017 24.8399 9.75017 24.7999 9.79017 24.7599C9.83017 24.7199 9.87017 24.6899 9.91017 24.6499C9.92017 24.6399 9.93017 24.63 9.95017 24.62C9.99017 24.58 10.0402 24.5399 10.0802 24.4999C10.1202 24.4699 10.1602 24.4299 10.2002 24.3999C10.2202 24.3799 10.2402 24.37 10.2602 24.36C10.3002 24.33 10.3402 24.2999 10.3802 24.2699L10.3902 24.2599C10.4402 24.2199 10.4902 24.1899 10.5402 24.1499C10.6702 24.0499 10.8002 23.96 10.9402 23.87C10.9702 23.85 10.9902 23.8299 11.0202 23.8199C11.1002 23.7699 11.1802 23.7099 11.2702 23.6599C11.3002 23.6399 11.3302 23.63 11.3502 23.61C11.3802 23.59 11.4002 23.5799 11.4302 23.5599C11.7502 23.3699 12.0802 23.1999 12.4202 23.0499C12.4502 23.0399 12.4702 23.0299 12.5002 23.0099C12.5302 22.9999 12.5602 22.9799 12.6002 22.9699C12.7202 22.9199 12.8302 22.8699 12.9502 22.8299C13.1602 22.7499 13.3602 22.6799 13.5802 22.6099C13.6102 22.5999 13.6402 22.5899 13.6802 22.5799C13.8802 22.5199 14.0902 22.4699 14.2902 22.4199C14.3402 22.4099 14.4002 22.3999 14.4602 22.3799C14.7202 22.3299 14.9702 22.2799 15.2402 22.2499C15.2802 22.2399 15.3102 22.2399 15.3502 22.2399C15.3702 22.2399 15.4002 22.2299 15.4302 22.2299C15.4602 22.2299 15.4802 22.2199 15.5102 22.2199C15.5402 22.2199 15.5802 22.2099 15.6102 22.2099C15.6402 22.2099 15.6802 22.1999 15.7102 22.1999C15.9102 22.1799 16.1202 22.1699 16.3202 22.1699C16.3502 22.1699 16.3802 22.1699 16.4102 22.1699C16.4502 22.1699 16.5002 22.1699 16.5402 22.1699C16.5802 22.1699 16.6302 22.1699 16.6702 22.1699C16.7002 22.1699 16.7302 22.1699 16.7602 22.1699C16.9802 22.1699 17.2002 22.1899 17.4102 22.2099C17.4502 22.2099 17.4802 22.2199 17.5202 22.2199C17.5502 22.2199 17.5802 22.2299 17.6202 22.2299C17.6402 22.2299 17.6602 22.2299 17.6802 22.2399C17.7102 22.2399 17.7502 22.2499 17.7802 22.2499C17.8002 22.2499 17.8302 22.2599 17.8502 22.2599C17.8802 22.2599 17.9002 22.2699 17.9302 22.2699C17.9702 22.2799 18.0102 22.2799 18.0502 22.2899C18.0902 22.2899 18.1202 22.2999 18.1602 22.3099C18.2302 22.3199 18.3002 22.3299 18.3702 22.3499C18.4002 22.3599 18.4302 22.3599 18.4602 22.3699C18.6702 22.4099 18.8902 22.4599 19.1002 22.5099C19.1302 22.5199 19.1702 22.5299 19.2002 22.5399C19.2302 22.5499 19.2702 22.5599 19.3002 22.5699C19.3702 22.5899 19.4302 22.6099 19.5002 22.6299C19.5702 22.6499 19.6302 22.6699 19.7002 22.6899C19.7302 22.6999 19.7702 22.7099 19.8002 22.7199C19.8302 22.7299 19.8702 22.7399 19.9002 22.7499C19.9702 22.7699 20.0302 22.7999 20.1002 22.8199C20.1302 22.8299 20.1602 22.8399 20.1902 22.8499C20.2302 22.8599 20.2602 22.8799 20.3002 22.8899C20.3302 22.8999 20.3602 22.9199 20.4002 22.9299C20.4602 22.9599 20.5302 22.9799 20.5902 23.0099C20.6202 23.0199 20.6602 23.0399 20.6902 23.0499C20.7502 23.0799 20.8102 23.1099 20.8702 23.1299C20.9302 23.1599 20.9902 23.1899 21.0402 23.2099C21.0702 23.2299 21.1102 23.2499 21.1402 23.2599C21.1902 23.2899 21.2502 23.3099 21.3002 23.3399C21.3402 23.3599 21.3802 23.3899 21.4302 23.4099C21.4602 23.4299 21.4802 23.4399 21.5102 23.4499C21.5702 23.4799 21.6302 23.5199 21.6902 23.5499C21.7202 23.5699 21.7502 23.5899 21.7802 23.5999C21.8102 23.6199 21.8402 23.6399 21.8702 23.6499C21.9602 23.6999 22.0402 23.7599 22.1302 23.8199C22.1602 23.8399 22.1902 23.8599 22.2102 23.8799C22.2402 23.8999 22.2702 23.9199 22.2902 23.9399L22.3002 23.95C22.4002 24.02 22.4902 24.0899 22.5902 24.1599C22.6802 24.2299 22.7702 24.3 22.8602 24.37C22.9002 24.4 22.9402 24.4399 22.9802 24.4699C23.0202 24.4999 23.0602 24.5399 23.1002 24.5699C23.1202 24.5899 23.1502 24.6099 23.1702 24.6299C23.2002 24.6599 23.2302 24.6799 23.2602 24.7099C23.2802 24.7299 23.3002 24.7499 23.3202 24.7699C23.3502 24.7999 23.3802 24.8199 23.4102 24.8499C23.4302 24.8699 23.4502 24.8899 23.4702 24.9099C23.5102 24.9499 23.5502 24.99 23.5902 25.03C23.6202 25.06 23.6502 25.0899 23.6902 25.1299C23.7202 25.1599 23.7602 25.1999 23.7902 25.2299C23.8202 25.2599 23.8502 25.2899 23.8802 25.3299C23.9002 25.3499 23.9102 25.3599 23.9302 25.3799C23.9602 25.4099 23.9902 25.4499 24.0202 25.4799C24.0502 25.5199 24.0802 25.5499 24.1202 25.5899C24.1602 25.6299 24.1902 25.6699 24.2302 25.7199L24.2402 25.7299C24.2702 25.7699 24.3002 25.8099 24.3402 25.8499C24.4402 25.9699 24.5302 26.0899 24.6202 26.2199C24.6502 26.2599 24.6802 26.2999 24.7102 26.3399C24.7202 26.3599 24.7302 26.3699 24.7402 26.3899C24.7702 26.4299 24.8002 26.4699 24.8302 26.5099C24.8702 26.5599 24.9002 26.6199 24.9402 26.6699C24.9702 26.7199 25.0002 26.7599 25.0302 26.8099C25.0702 26.8799 25.1202 26.9499 25.1602 27.0199C25.1902 27.0699 25.2102 27.1099 25.2402 27.1599C25.2502 27.1699 25.2602 27.19 25.2602 27.2C25.2902 27.25 25.3202 27.2999 25.3402 27.3499C25.3702 27.4099 25.4002 27.4599 25.4302 27.5199V27.53C25.4602 27.58 25.4802 27.6299 25.5102 27.6899C25.5102 27.6999 25.5202 27.7099 25.5202 27.7199C25.5502 27.7699 25.5702 27.8299 25.6002 27.8799C25.6202 27.9199 25.6402 27.9599 25.6602 27.9999C25.6702 28.0299 25.6902 28.0499 25.7002 28.0799V28.0899C25.7202 28.1399 25.7402 28.1799 25.7602 28.2299V28.2399C25.7902 28.2999 25.8102 28.3599 25.8302 28.4199C25.8502 28.4699 25.8702 28.5199 25.8902 28.5699C25.9002 28.5899 25.9102 28.6099 25.9102 28.6299C25.9302 28.6799 25.9402 28.7199 25.9602 28.7699C25.9702 28.7899 25.9702 28.7999 25.9802 28.8199C26.0002 28.8599 26.0102 28.91 26.0302 28.95C26.0302 28.96 26.0302 28.9599 26.0302 28.9699C26.0402 28.9899 26.0402 29.01 26.0502 29.03C26.0702 29.08 26.0802 29.1299 26.1002 29.1799C26.1302 29.2799 26.1702 29.36 26.2302 29.45C26.3902 29.69 26.6302 29.8599 26.9202 29.9199L32.1402 30.9999C32.6402 31.0999 33.0902 30.6899 33.0302 30.1799C32.0102 21.95 24.9202 15.5899 16.5302 15.5899C8.11017 15.5599 1.02017 21.9299 0.0101672 30.1799Z" fill="white"/>
<path d="M32.1304 33.31L31.2204 33.5C30.7204 33.61 30.2204 33.72 29.7204 33.82C28.7804 34.02 27.8504 34.22 26.9104 34.42H26.9004H26.8904C26.6404 34.48 26.4204 34.62 26.2704 34.82C26.2004 34.92 26.1404 35.03 26.1004 35.15C26.0904 35.2 26.0704 35.24 26.0604 35.29C24.7504 39.31 20.9704 42.21 16.5104 42.21C16.4704 42.21 16.4204 42.21 16.3804 42.21C16.3504 42.21 16.3204 42.21 16.2904 42.21C16.2504 42.21 16.2104 42.21 16.1804 42.21C16.1404 42.21 16.1104 42.21 16.0704 42.21C15.9204 42.2 15.7804 42.19 15.6304 42.18C15.6004 42.18 15.5704 42.17 15.5304 42.17C15.5104 42.17 15.4804 42.17 15.4604 42.16C15.4304 42.16 15.4004 42.15 15.3704 42.15C15.1604 42.13 14.9504 42.1 14.7504 42.06C14.7204 42.05 14.6804 42.05 14.6504 42.04C14.4804 42.01 14.3204 41.97 14.1504 41.94C14.1204 41.93 14.0804 41.92 14.0504 41.92C13.9904 41.9 13.9204 41.89 13.8604 41.87C13.8304 41.86 13.8104 41.86 13.7804 41.85C13.5304 41.78 13.2804 41.7 13.0404 41.61C13.0104 41.6 12.9704 41.59 12.9404 41.57C12.9204 41.56 12.8904 41.55 12.8704 41.54C12.7604 41.5 12.6504 41.45 12.5404 41.41C12.4904 41.39 12.4404 41.37 12.3904 41.34C12.2204 41.26 12.0604 41.19 11.9004 41.1C11.8704 41.08 11.8404 41.07 11.8104 41.05C11.7604 41.02 11.7104 41 11.6604 40.97C11.6404 40.96 11.6104 40.95 11.5904 40.93C11.5704 40.92 11.5604 40.91 11.5404 40.9C11.5104 40.88 11.4804 40.87 11.4504 40.85C11.3904 40.82 11.3304 40.78 11.2704 40.74C11.2404 40.72 11.2104 40.7 11.1804 40.69C11.1504 40.67 11.1204 40.65 11.0904 40.63C11.0604 40.61 11.0304 40.59 11.0004 40.57C10.9604 40.55 10.9304 40.52 10.8904 40.5C10.8604 40.48 10.8204 40.45 10.7904 40.43C10.7204 40.38 10.6604 40.34 10.5904 40.29C10.5604 40.27 10.5204 40.24 10.4904 40.22C10.4504 40.19 10.4204 40.17 10.3804 40.14C10.3404 40.11 10.3004 40.08 10.2604 40.05C10.2504 40.04 10.2404 40.03 10.2304 40.02C10.2104 40 10.1904 39.99 10.1704 39.97C10.1404 39.94 10.1004 39.91 10.0604 39.88C10.0404 39.86 10.0204 39.85 10.0104 39.83C9.98043 39.8 9.95043 39.78 9.91043 39.75C9.89043 39.73 9.87043 39.72 9.85043 39.7C9.84043 39.69 9.83043 39.68 9.82043 39.68C9.79043 39.66 9.77043 39.63 9.74043 39.61C9.68043 39.56 9.62043 39.5 9.57043 39.45C9.54043 39.42 9.50043 39.39 9.47043 39.36C9.42043 39.31 9.37043 39.26 9.32043 39.21C9.30043 39.19 9.28043 39.17 9.26043 39.15C9.23043 39.12 9.19043 39.08 9.16043 39.05C9.12043 39.01 9.08043 38.96 9.03043 38.91C9.03043 38.91 9.03043 38.9 9.02043 38.9C8.98043 38.85 8.94043 38.81 8.89043 38.76L8.88043 38.75C8.71043 38.56 8.55043 38.36 8.40043 38.15C8.39043 38.14 8.38043 38.13 8.37043 38.11C8.34043 38.07 8.31043 38.03 8.28043 37.99C8.28043 37.99 8.28043 37.98 8.27043 37.98C8.24043 37.94 8.21043 37.9 8.19043 37.86C8.17043 37.83 8.15043 37.8 8.13043 37.77C8.10043 37.73 8.08043 37.69 8.05043 37.65C8.07043 37.63 8.03043 37.58 8.00043 37.52C7.93043 37.41 7.87043 37.3 7.80043 37.19C7.80043 37.19 7.80043 37.18 7.79043 37.18C7.76043 37.12 7.73043 37.07 7.69043 37.01C7.63043 36.9 7.57043 36.78 7.51043 36.66C7.48043 36.6 7.46043 36.55 7.43043 36.49C7.42043 36.48 7.42043 36.47 7.41043 36.45C7.39043 36.4 7.37043 36.36 7.35043 36.31C7.35043 36.3 7.34043 36.29 7.34043 36.29C7.31043 36.23 7.29043 36.18 7.27043 36.12C7.24043 36.06 7.22043 36 7.19043 35.94C7.17043 35.88 7.14043 35.82 7.12043 35.75C7.10043 35.69 7.07043 35.63 7.05043 35.56C7.03043 35.5 7.01043 35.44 6.99043 35.39V35.38C6.97043 35.31 6.94043 35.24 6.92043 35.17C6.92043 35.16 6.92043 35.16 6.91043 35.15C6.79043 34.79 6.48043 34.53 6.12043 34.45L0.89043 33.37C0.46043 33.28 0.0704297 33.58 0.0104297 33.98C0.000429688 34.05 0.000429688 34.11 0.0104297 34.19C1.00043 42.43 8.01043 48.81 16.5104 48.81C20.1604 48.81 23.5304 47.64 26.2704 45.64C26.3004 45.62 26.3404 45.59 26.3704 45.57L26.3804 45.56V46.01C26.3804 46.95 26.7504 47.81 27.3504 48.43C27.9504 49.05 28.7804 49.43 29.7004 49.43C31.5404 49.43 33.0204 47.9 33.0204 46.01V34.06C33.0204 34.01 33.0204 33.96 33.0104 33.92C32.9504 33.57 32.6404 33.3 32.2804 33.3C32.2304 33.29 32.1804 33.3 32.1304 33.31Z" fill="white"/>
<path d="M26.0598 35.3101C24.5998 41.0601 19.3898 45.3101 13.1798 45.3101C6.50977 45.3101 0.959766 40.3901 0.00976562 33.9801C0.0697656 33.5801 0.469766 33.2801 0.889766 33.3701L6.11977 34.4501C6.48977 34.5301 6.78977 34.8001 6.90977 35.1501C6.90977 35.1601 6.90977 35.1601 6.91977 35.1701C6.93977 35.2401 6.95977 35.3101 6.98977 35.3801V35.3901C7.00977 35.4501 7.02977 35.5101 7.04977 35.5601C7.06977 35.6201 7.09977 35.6901 7.11977 35.7501C7.13977 35.8101 7.16977 35.8701 7.18977 35.9401C7.21977 36.0001 7.23977 36.0601 7.26977 36.1201C7.28977 36.1801 7.31977 36.2301 7.33977 36.2901C7.33977 36.3001 7.34977 36.3101 7.34977 36.3101C7.36977 36.3601 7.38977 36.4001 7.40977 36.4501C7.41977 36.4601 7.41977 36.4701 7.42977 36.4901C7.45977 36.5501 7.47977 36.6001 7.50977 36.6601C7.56977 36.7801 7.62977 36.8901 7.68977 37.0101C7.71977 37.0701 7.74977 37.1201 7.78977 37.1801C7.78977 37.1801 7.78977 37.1901 7.79977 37.1901C7.85977 37.3001 7.92977 37.4101 7.99977 37.5201C8.02977 37.5801 8.06977 37.6301 8.10977 37.6901C8.13977 37.7301 8.15976 37.7701 8.18976 37.8101C8.20976 37.8401 8.22977 37.8701 8.24977 37.9001C8.27977 37.9401 8.30977 37.9801 8.32977 38.0201C8.32977 38.0201 8.32977 38.0301 8.33977 38.0301C8.36977 38.0701 8.39977 38.1101 8.42977 38.1501C8.43977 38.1601 8.44977 38.1801 8.45977 38.1901C8.60977 38.3901 8.76976 38.5901 8.93976 38.7901L8.94977 38.8001C8.98977 38.8501 9.02977 38.8901 9.07977 38.9401C9.07977 38.9401 9.07977 38.9501 9.08977 38.9501C9.12977 39.0001 9.16977 39.0401 9.21977 39.0901C9.24977 39.1301 9.28977 39.1601 9.31977 39.1901C9.33977 39.2101 9.35977 39.2301 9.37977 39.2501C9.42977 39.3001 9.47977 39.3501 9.52977 39.4001C9.55977 39.4301 9.58977 39.4601 9.62977 39.4901C9.68977 39.5401 9.73977 39.6001 9.79977 39.6501C9.82977 39.6701 9.84977 39.7001 9.87977 39.7201C9.88977 39.7301 9.89977 39.7401 9.90977 39.7401C9.92977 39.7601 9.94977 39.7701 9.96977 39.7901C9.99977 39.8201 10.0298 39.8401 10.0698 39.8701C10.0898 39.8901 10.1098 39.9001 10.1198 39.9201C10.1498 39.9501 10.1898 39.9801 10.2298 40.0101C10.2498 40.0301 10.2698 40.0401 10.2898 40.0601C10.2998 40.0701 10.3098 40.0801 10.3198 40.0901C10.3598 40.1201 10.3998 40.1501 10.4398 40.1801C10.4798 40.2101 10.5098 40.2401 10.5498 40.2601C10.6798 40.3601 10.8098 40.4501 10.9498 40.5401C10.9898 40.5601 11.0198 40.5901 11.0598 40.6101C11.0898 40.6301 11.1198 40.6501 11.1498 40.6701C11.1798 40.6901 11.2098 40.7101 11.2398 40.7301C11.2698 40.7501 11.2998 40.7701 11.3298 40.7801C11.3898 40.8201 11.4498 40.8501 11.5098 40.8901C11.5398 40.9101 11.5698 40.9201 11.5998 40.9401C11.6198 40.9501 11.6298 40.9601 11.6498 40.9701C11.6698 40.9801 11.6998 41.0001 11.7198 41.0101C11.7698 41.0401 11.8198 41.0701 11.8698 41.0901C11.8998 41.1101 11.9298 41.1201 11.9598 41.1401C12.1198 41.2201 12.2898 41.3001 12.4498 41.3801C12.4998 41.4001 12.5498 41.4201 12.5998 41.4501C12.7098 41.5001 12.8198 41.5401 12.9298 41.5801C12.9498 41.5901 12.9798 41.6001 12.9998 41.6101C13.0298 41.6201 13.0598 41.6301 13.0998 41.6501C13.3398 41.7401 13.5898 41.8201 13.8398 41.8901C13.8698 41.9001 13.8898 41.9001 13.9198 41.9101C13.9798 41.9301 14.0498 41.9401 14.1098 41.9601C14.1398 41.9701 14.1798 41.9801 14.2098 41.9801C14.3698 42.0201 14.5398 42.0501 14.7098 42.0801C14.7398 42.0901 14.7798 42.0901 14.8098 42.1001C15.0098 42.1401 15.2198 42.1701 15.4298 42.1901C15.4598 42.1901 15.4898 42.2001 15.5198 42.2001C15.5398 42.2001 15.5598 42.2001 15.5898 42.2101C15.6198 42.2101 15.6498 42.2201 15.6898 42.2201C15.8298 42.2301 15.9798 42.2401 16.1298 42.2501C16.1598 42.2501 16.1998 42.2501 16.2398 42.2501C16.2798 42.2501 16.3198 42.2501 16.3498 42.2501C16.3798 42.2501 16.4098 42.2501 16.4398 42.2501C16.4798 42.2501 16.5298 42.2501 16.5698 42.2501C20.9698 42.2301 24.7498 39.3301 26.0598 35.3101Z" fill="white"/>
<path d="M26.2102 29.43C26.1602 29.35 26.1102 29.26 26.0802 29.16C26.0602 29.11 26.0502 29.06 26.0302 29.01C26.0202 28.99 26.0202 28.97 26.0102 28.95C26.0102 28.94 26.0102 28.94 26.0102 28.93C25.9902 28.89 25.9802 28.84 25.9602 28.8C25.9502 28.78 25.9502 28.77 25.9402 28.75C25.9202 28.7 25.9102 28.66 25.8902 28.61C25.8802 28.59 25.8702 28.57 25.8702 28.55C25.8502 28.5 25.8302 28.45 25.8102 28.4C25.7902 28.34 25.7602 28.28 25.7402 28.22V28.21C25.7202 28.16 25.7002 28.12 25.6802 28.07V28.06C25.6702 28.03 25.6602 28.01 25.6402 27.98C25.6202 27.94 25.6002 27.9 25.5802 27.86C25.5602 27.81 25.5302 27.75 25.5002 27.7C25.4902 27.69 25.4902 27.68 25.4902 27.67C25.4602 27.62 25.4402 27.57 25.4102 27.51V27.5C25.3802 27.44 25.3502 27.38 25.3202 27.33C25.2902 27.28 25.2602 27.23 25.2402 27.18C25.2302 27.17 25.2202 27.15 25.2202 27.14C25.1902 27.09 25.1702 27.05 25.1402 27C25.1002 26.93 25.0602 26.86 25.0102 26.79C24.9802 26.74 24.9502 26.7 24.9202 26.65C24.8802 26.6 24.8502 26.54 24.8102 26.49C24.7802 26.45 24.7502 26.41 24.7202 26.37C24.7102 26.35 24.7002 26.34 24.6902 26.32C24.6602 26.28 24.6302 26.24 24.6002 26.2C24.5102 26.08 24.4102 25.95 24.3202 25.83C24.2902 25.79 24.2602 25.75 24.2202 25.71L24.2102 25.7C24.1702 25.66 24.1402 25.62 24.1002 25.57C24.0702 25.53 24.0402 25.5 24.0002 25.46C23.9702 25.43 23.9402 25.39 23.9102 25.36C23.8902 25.34 23.8802 25.33 23.8602 25.31C23.8302 25.28 23.8002 25.24 23.7702 25.21C23.7402 25.18 23.7002 25.14 23.6702 25.11C23.6402 25.08 23.6102 25.05 23.5702 25.01C23.5302 24.97 23.4902 24.93 23.4502 24.89C23.4302 24.87 23.4102 24.85 23.3902 24.83C23.3602 24.8 23.3302 24.78 23.3002 24.75C23.2802 24.73 23.2602 24.71 23.2402 24.69C23.2102 24.66 23.1802 24.64 23.1502 24.61C23.1302 24.59 23.1002 24.57 23.0802 24.55C23.0402 24.52 23.0002 24.48 22.9602 24.45C22.9202 24.42 22.8802 24.38 22.8402 24.35C22.7502 24.28 22.6602 24.21 22.5702 24.14C22.4702 24.07 22.3802 24 22.2802 23.93L22.2702 23.92C22.2402 23.9 22.2102 23.88 22.1902 23.86C22.1602 23.84 22.1302 23.82 22.1102 23.8C22.0202 23.74 21.9402 23.69 21.8502 23.63C21.8202 23.61 21.7902 23.59 21.7602 23.58C21.7302 23.56 21.7002 23.54 21.6702 23.53C21.6102 23.49 21.5502 23.46 21.4902 23.43C21.4602 23.41 21.4402 23.4 21.4102 23.39C21.3702 23.37 21.3302 23.34 21.2802 23.32C21.2302 23.29 21.1702 23.26 21.1202 23.24C21.0902 23.22 21.0502 23.2 21.0202 23.19C20.9602 23.16 20.9002 23.13 20.8502 23.11C20.7902 23.08 20.7302 23.05 20.6702 23.03C20.6402 23.01 20.6002 23 20.5702 22.99C20.5102 22.96 20.4402 22.93 20.3802 22.91C20.3502 22.9 20.3202 22.88 20.2802 22.87C20.2402 22.86 20.2102 22.84 20.1702 22.83C20.1402 22.82 20.1102 22.81 20.0802 22.8C20.0202 22.78 19.9502 22.75 19.8802 22.73C19.8502 22.72 19.8102 22.71 19.7802 22.7C19.7502 22.69 19.7102 22.68 19.6802 22.67C19.6102 22.65 19.5502 22.63 19.4802 22.61C19.4102 22.59 19.3502 22.57 19.2802 22.55C19.2502 22.54 19.2102 22.53 19.1802 22.52C19.1502 22.51 19.1102 22.5 19.0802 22.49C18.8702 22.43 18.6602 22.39 18.4402 22.35C18.4102 22.34 18.3802 22.34 18.3502 22.33C18.2802 22.32 18.2102 22.3 18.1402 22.29C18.1102 22.28 18.0702 22.28 18.0302 22.27C17.9902 22.26 17.9502 22.26 17.9002 22.25C17.8702 22.25 17.8502 22.24 17.8202 22.24C17.8002 22.24 17.7702 22.23 17.7502 22.23C17.7202 22.23 17.6802 22.22 17.6502 22.22C17.6302 22.22 17.6102 22.21 17.5902 22.21C17.5602 22.21 17.5302 22.2 17.4902 22.2C17.4502 22.2 17.4202 22.19 17.3802 22.19C17.1602 22.17 16.9502 22.16 16.7302 22.15C16.7002 22.15 16.6702 22.15 16.6402 22.15C16.6002 22.15 16.5502 22.15 16.5102 22.15C16.4702 22.15 16.4202 22.15 16.3802 22.15C16.3502 22.15 16.3202 22.15 16.2902 22.15C16.0802 22.15 15.8802 22.17 15.6802 22.18C15.6502 22.18 15.6102 22.19 15.5802 22.19C15.5502 22.19 15.5102 22.2 15.4802 22.2C15.4502 22.2 15.4302 22.21 15.4002 22.21C15.3702 22.21 15.3502 22.22 15.3202 22.22C15.2802 22.22 15.2502 22.23 15.2102 22.23C14.9502 22.26 14.6902 22.31 14.4302 22.36C14.3702 22.37 14.3202 22.38 14.2602 22.4C14.0502 22.45 13.8502 22.5 13.6502 22.56C13.6202 22.57 13.5802 22.58 13.5502 22.59C13.3402 22.66 13.1302 22.73 12.9202 22.81C12.8002 22.86 12.6802 22.9 12.5702 22.95C12.5402 22.96 12.5102 22.98 12.4702 22.99C12.4402 23 12.4202 23.01 12.3902 23.03C12.0502 23.18 11.7202 23.35 11.4002 23.54C11.3702 23.56 11.3502 23.57 11.3202 23.59C11.2902 23.61 11.2602 23.62 11.2402 23.64C11.1602 23.69 11.0702 23.74 10.9902 23.8C10.9602 23.82 10.9402 23.84 10.9102 23.85C10.7702 23.94 10.6402 24.03 10.5102 24.13C10.4602 24.17 10.4102 24.2 10.3602 24.24L10.3502 24.25C10.3102 24.28 10.2702 24.31 10.2302 24.34C10.2102 24.36 10.1902 24.37 10.1702 24.38C10.1302 24.41 10.0902 24.45 10.0502 24.48C10.0002 24.52 9.96017 24.56 9.92017 24.6C9.91017 24.61 9.90017 24.62 9.88017 24.63C9.84017 24.67 9.80017 24.7 9.76017 24.74C9.71017 24.78 9.67017 24.82 9.63017 24.86C9.62017 24.87 9.62017 24.87 9.61017 24.88C9.58017 24.92 9.53017 24.96 9.49017 25L9.48017 25.01C9.39017 25.09 9.31017 25.18 9.23017 25.26C9.22017 25.27 9.21017 25.28 9.21017 25.28C9.17017 25.32 9.13017 25.36 9.09017 25.4C9.08017 25.41 9.08017 25.41 9.07017 25.42C9.04017 25.48 9.00017 25.52 8.96017 25.57C8.96017 25.57 8.96017 25.57 8.95017 25.58C8.92017 25.62 8.88017 25.66 8.85017 25.69C8.84017 25.7 8.83017 25.71 8.82017 25.73C8.78017 25.78 8.73017 25.83 8.69017 25.89C8.65017 25.94 8.61017 25.98 8.58017 26.03C8.57017 26.04 8.57017 26.04 8.56017 26.05C8.53017 26.09 8.49017 26.14 8.46017 26.18C8.43017 26.22 8.39017 26.27 8.36017 26.31C8.34017 26.33 8.33017 26.35 8.31017 26.37C8.25017 26.46 8.19017 26.54 8.13017 26.63C8.12017 26.65 8.10017 26.67 8.09017 26.69C8.07017 26.72 8.05017 26.76 8.03017 26.79C8.02017 26.81 8.01017 26.83 8.00017 26.86C7.97017 26.9 7.94017 26.95 7.91017 27C7.88017 27.05 7.85017 27.09 7.83017 27.14C7.83017 27.15 7.82017 27.15 7.82017 27.16C7.79017 27.21 7.77017 27.25 7.74017 27.3C7.72017 27.34 7.69017 27.39 7.67017 27.43C7.66017 27.45 7.64017 27.48 7.63017 27.5C7.62017 27.51 7.62017 27.52 7.61017 27.54C7.59017 27.58 7.57017 27.62 7.55017 27.66C7.54017 27.67 7.54017 27.68 7.54017 27.69C7.52017 27.74 7.49017 27.79 7.47017 27.84C7.45017 27.89 7.42017 27.94 7.40017 27.99C7.39017 28.02 7.38017 28.04 7.36017 28.07C7.34017 28.12 7.31017 28.18 7.29017 28.23C7.27017 28.28 7.25017 28.34 7.22017 28.39C7.20017 28.44 7.18017 28.5 7.16017 28.55C7.15017 28.57 7.14017 28.6 7.13017 28.62C7.11017 28.66 7.10017 28.7 7.08017 28.74C7.07017 28.77 7.06017 28.79 7.05017 28.82C7.04017 28.86 7.02017 28.9 7.01017 28.94C7.00017 28.97 6.99017 29 6.98017 29.04C6.97017 29.08 6.96017 29.12 6.94017 29.15C6.82017 29.52 6.51017 29.8 6.13017 29.88L0.900167 30.99C0.430167 31.09 -0.00983275 30.72 0.000167247 30.25C0.870167 23.75 6.43017 18.73 13.1702 18.73C19.6302 18.73 25.0102 23.33 26.2102 29.43Z" fill="white"/>
</g>
<defs>
<clipPath id="clip0_202_2416">
<rect width="144" height="65" fill="white"/>
</clipPath>
</defs>
</svg>
